<svg width="420" height="240" viewBox="0 0 420 240" fill="none" xmlns="http://www.w3.org/2000/svg">
<g clip-path="url(#clip0)">
<rect width="420" height="240" fill="white"/>
<path d="M0 0H420V214H0V0Z" fill="#002147"/>
<path d="M82.4575 63.496C82.4575 68.2187 81.7095 72.56 80.2135 76.52C78.7175 80.4507 76.6055 83.8387 73.8775 86.684C71.1495 89.5293 67.8642 91.744 64.0215 93.328C60.2082 94.8827 55.9842 95.66 51.3495 95.66C46.7149 95.66 42.4909 94.8827 38.6775 93.328C34.8642 91.744 31.5935 89.5293 28.8655 86.684C26.1375 83.8387 24.0255 80.4507 22.5295 76.52C21.0335 72.56 20.2855 68.2187 20.2855 63.496C20.2855 58.7733 21.0335 54.4467 22.5295 50.516C24.0255 46.556 26.1375 43.1533 28.8655 40.308C31.5935 37.4333 34.8642 35.204 38.6775 33.62C42.4909 32.036 46.7149 31.244 51.3495 31.244C55.9842 31.244 60.2082 32.036 64.0215 33.62C67.8642 35.204 71.1495 37.4333 73.8775 40.308C76.6055 43.1533 78.7175 46.556 80.2135 50.516C81.7095 54.4467 82.4575 58.7733 82.4575 63.496ZM73.7015 63.496C73.7015 59.624 73.1735 56.148 72.1175 53.068C71.0615 49.988 69.5655 47.392 67.6295 45.28C65.6935 43.1387 63.3469 41.496 60.5895 40.352C57.8322 39.208 54.7522 38.636 51.3495 38.636C47.9762 38.636 44.9109 39.208 42.1535 40.352C39.3962 41.496 37.0349 43.1387 35.0695 45.28C33.1335 47.392 31.6375 49.988 30.5815 53.068C29.5255 56.148 28.9975 59.624 28.9975 63.496C28.9975 67.368 29.5255 70.844 30.5815 73.924C31.6375 76.9747 33.1335 79.5707 35.0695 81.712C37.0349 83.824 39.3962 85.452 42.1535 86.596C44.9109 87.7107 47.9762 88.268 51.3495 88.268C54.7522 88.268 57.8322 87.7107 60.5895 86.596C63.3469 85.452 65.6935 83.824 67.6295 81.712C69.5655 79.5707 71.0615 76.9747 72.1175 73.924C73.1735 70.844 73.7015 67.368 73.7015 63.496ZM126.147 50.428V95H121.483C120.368 95 119.664 94.4573 119.371 93.372L118.755 88.576C116.819 90.7173 114.648 92.448 112.243 93.768C109.837 95.0587 107.08 95.704 103.971 95.704C101.536 95.704 99.3801 95.308 97.5028 94.516C95.6548 93.6947 94.1001 92.5507 92.8388 91.084C91.5775 89.6173 90.6241 87.8427 89.9788 85.76C89.3628 83.6773 89.0548 81.3747 89.0548 78.852V50.428H96.8868V78.852C96.8868 82.2253 97.6495 84.836 99.1748 86.684C100.729 88.532 103.091 89.456 106.259 89.456C108.576 89.456 110.732 88.9133 112.727 87.828C114.751 86.7133 116.613 85.188 118.315 83.252V50.428H126.147ZM143.361 59.36C144.769 56.3093 146.5 53.9333 148.553 52.232C150.606 50.5013 153.114 49.636 156.077 49.636C157.016 49.636 157.91 49.7387 158.761 49.944C159.641 50.1493 160.418 50.472 161.093 50.912L160.521 56.764C160.345 57.4973 159.905 57.864 159.201 57.864C158.79 57.864 158.189 57.776 157.397 57.6C156.605 57.424 155.71 57.336 154.713 57.336C153.305 57.336 152.044 57.5413 150.929 57.952C149.844 58.3627 148.861 58.9787 147.981 59.8C147.13 60.592 146.353 61.5893 145.649 62.792C144.974 63.9653 144.358 65.3147 143.801 66.84V95H135.925V50.428H140.413C141.264 50.428 141.85 50.5893 142.173 50.912C142.496 51.2347 142.716 51.792 142.833 52.584L143.361 59.36ZM265.678 31.948L246.01 95H238.354L222.382 46.908C222.235 46.4387 222.088 45.94 221.942 45.412C221.824 44.884 221.692 44.3267 221.546 43.74C221.399 44.3267 221.252 44.884 221.106 45.412C220.959 45.94 220.812 46.4387 220.666 46.908L204.606 95H196.95L177.282 31.948H184.366C185.128 31.948 185.759 32.1387 186.258 32.52C186.786 32.9013 187.123 33.3853 187.27 33.972L200.294 77.796C200.499 78.588 200.69 79.4387 200.866 80.348C201.071 81.2573 201.262 82.2253 201.438 83.252C201.643 82.2253 201.848 81.2573 202.054 80.348C202.288 79.4093 202.538 78.5587 202.802 77.796L217.63 33.972C217.806 33.4733 218.143 33.0187 218.642 32.608C219.17 32.168 219.8 31.948 220.534 31.948H222.998C223.76 31.948 224.376 32.1387 224.846 32.52C225.315 32.9013 225.667 33.3853 225.902 33.972L240.686 77.796C240.95 78.5587 241.184 79.38 241.39 80.26C241.624 81.14 241.844 82.064 242.05 83.032C242.196 82.064 242.358 81.14 242.534 80.26C242.71 79.38 242.9 78.5587 243.106 77.796L256.174 33.972C256.32 33.444 256.643 32.9747 257.142 32.564C257.67 32.1533 258.3 31.948 259.034 31.948H265.678ZM284.379 49.724C287.635 49.724 290.568 50.2667 293.179 51.352C295.79 52.4373 298.019 53.9773 299.867 55.972C301.715 57.9667 303.123 60.3867 304.091 63.232C305.088 66.048 305.587 69.2013 305.587 72.692C305.587 76.212 305.088 79.38 304.091 82.196C303.123 85.012 301.715 87.4173 299.867 89.412C298.019 91.4067 295.79 92.9467 293.179 94.032C290.568 95.088 287.635 95.616 284.379 95.616C281.094 95.616 278.131 95.088 275.491 94.032C272.88 92.9467 270.651 91.4067 268.803 89.412C266.955 87.4173 265.532 85.012 264.535 82.196C263.567 79.38 263.083 76.212 263.083 72.692C263.083 69.2013 263.567 66.048 264.535 63.232C265.532 60.3867 266.955 57.9667 268.803 55.972C270.651 53.9773 272.88 52.4373 275.491 51.352C278.131 50.2667 281.094 49.724 284.379 49.724ZM284.379 89.5C288.779 89.5 292.064 88.0333 294.235 85.1C296.406 82.1373 297.491 78.016 297.491 72.736C297.491 67.4267 296.406 63.2907 294.235 60.328C292.064 57.3653 288.779 55.884 284.379 55.884C282.15 55.884 280.199 56.2653 278.527 57.028C276.884 57.7907 275.506 58.8907 274.391 60.328C273.306 61.7653 272.484 63.54 271.927 65.652C271.399 67.7347 271.135 70.096 271.135 72.736C271.135 78.016 272.22 82.1373 274.391 85.1C276.591 88.0333 279.92 89.5 284.379 89.5ZM320.317 59.36C321.725 56.3093 323.455 53.9333 325.509 52.232C327.562 50.5013 330.07 49.636 333.033 49.636C333.971 49.636 334.866 49.7387 335.717 49.944C336.597 50.1493 337.374 50.472 338.049 50.912L337.477 56.764C337.301 57.4973 336.861 57.864 336.157 57.864C335.746 57.864 335.145 57.776 334.353 57.6C333.561 57.424 332.666 57.336 331.669 57.336C330.261 57.336 328.999 57.5413 327.885 57.952C326.799 58.3627 325.817 58.9787 324.937 59.8C324.086 60.592 323.309 61.5893 322.605 62.792C321.93 63.9653 321.314 65.3147 320.757 66.84V95H312.881V50.428H317.369C318.219 50.428 318.806 50.5893 319.129 50.912C319.451 51.2347 319.671 51.792 319.789 52.584L320.317 59.36ZM350.391 30.188V95H342.559V30.188H350.391ZM389.492 61.032C388.026 59.0667 386.442 57.7027 384.74 56.94C383.039 56.148 381.132 55.752 379.02 55.752C374.884 55.752 371.702 57.2333 369.472 60.196C367.243 63.1587 366.128 67.3827 366.128 72.868C366.128 75.772 366.378 78.2653 366.876 80.348C367.375 82.4013 368.108 84.1027 369.076 85.452C370.044 86.772 371.232 87.74 372.64 88.356C374.048 88.972 375.647 89.28 377.436 89.28C380.018 89.28 382.262 88.6933 384.168 87.52C386.104 86.3467 387.879 84.6893 389.492 82.548V61.032ZM397.324 30.188V95H392.66C391.546 95 390.842 94.4573 390.548 93.372L389.844 87.96C387.938 90.248 385.767 92.096 383.332 93.504C380.898 94.912 378.082 95.616 374.884 95.616C372.332 95.616 370.015 95.132 367.932 94.164C365.85 93.1667 364.075 91.7147 362.608 89.808C361.142 87.9013 360.012 85.5253 359.22 82.68C358.428 79.8347 358.032 76.564 358.032 72.868C358.032 69.5827 358.472 66.532 359.352 63.716C360.232 60.8707 361.494 58.4067 363.136 56.324C364.779 54.2413 366.788 52.6133 369.164 51.44C371.57 50.2373 374.268 49.636 377.26 49.636C379.988 49.636 382.32 50.1053 384.256 51.044C386.222 51.9533 387.967 53.2293 389.492 54.872V30.188H397.324ZM93.7277 140.428V185H85.8957V140.428H93.7277ZM95.3997 126.436C95.3997 127.199 95.2384 127.917 94.9157 128.592C94.6224 129.237 94.2117 129.824 93.6837 130.352C93.185 130.851 92.5837 131.247 91.8797 131.54C91.205 131.833 90.4864 131.98 89.7237 131.98C88.961 131.98 88.2424 131.833 87.5677 131.54C86.9224 131.247 86.3504 130.851 85.8517 130.352C85.353 129.824 84.957 129.237 84.6637 128.592C84.3704 127.917 84.2237 127.199 84.2237 126.436C84.2237 125.673 84.3704 124.955 84.6637 124.28C84.957 123.576 85.353 122.975 85.8517 122.476C86.3504 121.948 86.9224 121.537 87.5677 121.244C88.2424 120.951 88.961 120.804 89.7237 120.804C90.4864 120.804 91.205 120.951 91.8797 121.244C92.5837 121.537 93.185 121.948 93.6837 122.476C94.2117 122.975 94.6224 123.576 94.9157 124.28C95.2384 124.955 95.3997 125.673 95.3997 126.436ZM111.348 146.896C112.316 145.811 113.343 144.828 114.428 143.948C115.514 143.068 116.658 142.32 117.86 141.704C119.092 141.059 120.383 140.575 121.732 140.252C123.111 139.9 124.592 139.724 126.176 139.724C128.611 139.724 130.752 140.135 132.6 140.956C134.478 141.748 136.032 142.892 137.264 144.388C138.526 145.855 139.479 147.629 140.124 149.712C140.77 151.795 141.092 154.097 141.092 156.62V185H133.216V156.62C133.216 153.247 132.439 150.636 130.884 148.788C129.359 146.911 127.027 145.972 123.888 145.972C121.571 145.972 119.4 146.529 117.376 147.644C115.382 148.759 113.534 150.269 111.832 152.176V185H103.956V140.428H108.664C109.779 140.428 110.468 140.971 110.732 142.056L111.348 146.896ZM226.758 153.496C226.758 158.219 226.01 162.516 224.514 166.388C223.018 170.26 220.906 173.575 218.178 176.332C215.45 179.089 212.165 181.231 208.322 182.756C204.509 184.252 200.285 185 195.65 185H172.11V121.948H195.65C200.285 121.948 204.509 122.711 208.322 124.236C212.165 125.732 215.45 127.873 218.178 130.66C220.906 133.417 223.018 136.732 224.514 140.604C226.01 144.476 226.758 148.773 226.758 153.496ZM218.002 153.496C218.002 149.624 217.474 146.163 216.418 143.112C215.362 140.061 213.866 137.48 211.93 135.368C209.994 133.256 207.648 131.643 204.89 130.528C202.133 129.413 199.053 128.856 195.65 128.856H180.646V178.092H195.65C199.053 178.092 202.133 177.535 204.89 176.42C207.648 175.305 209.994 173.707 211.93 171.624C213.866 169.512 215.362 166.931 216.418 163.88C217.474 160.829 218.002 157.368 218.002 153.496ZM257.606 164.936C253.998 165.053 250.918 165.347 248.366 165.816C245.844 166.256 243.776 166.843 242.162 167.576C240.578 168.309 239.42 169.175 238.686 170.172C237.982 171.169 237.63 172.284 237.63 173.516C237.63 174.689 237.821 175.701 238.202 176.552C238.584 177.403 239.097 178.107 239.742 178.664C240.417 179.192 241.194 179.588 242.074 179.852C242.984 180.087 243.952 180.204 244.978 180.204C246.357 180.204 247.618 180.072 248.762 179.808C249.906 179.515 250.977 179.104 251.974 178.576C253.001 178.048 253.969 177.417 254.878 176.684C255.817 175.951 256.726 175.115 257.606 174.176V164.936ZM232.306 146.72C234.77 144.344 237.425 142.569 240.27 141.396C243.116 140.223 246.269 139.636 249.73 139.636C252.224 139.636 254.438 140.047 256.374 140.868C258.31 141.689 259.938 142.833 261.258 144.3C262.578 145.767 263.576 147.541 264.25 149.624C264.925 151.707 265.262 153.995 265.262 156.488V185H261.786C261.024 185 260.437 184.883 260.026 184.648C259.616 184.384 259.293 183.885 259.058 183.152L258.178 178.928C257.005 180.013 255.861 180.981 254.746 181.832C253.632 182.653 252.458 183.357 251.226 183.944C249.994 184.501 248.674 184.927 247.266 185.22C245.888 185.543 244.348 185.704 242.646 185.704C240.916 185.704 239.288 185.469 237.762 185C236.237 184.501 234.902 183.768 233.758 182.8C232.644 181.832 231.749 180.615 231.074 179.148C230.429 177.652 230.106 175.892 230.106 173.868C230.106 172.108 230.59 170.421 231.558 168.808C232.526 167.165 234.096 165.713 236.266 164.452C238.437 163.191 241.268 162.164 244.758 161.372C248.249 160.551 252.532 160.081 257.606 159.964V156.488C257.606 153.027 256.858 150.416 255.362 148.656C253.866 146.867 251.681 145.972 248.806 145.972C246.87 145.972 245.242 146.221 243.922 146.72C242.632 147.189 241.502 147.732 240.534 148.348C239.596 148.935 238.774 149.477 238.07 149.976C237.396 150.445 236.721 150.68 236.046 150.68C235.518 150.68 235.064 150.548 234.682 150.284C234.301 149.991 233.978 149.639 233.714 149.228L232.306 146.72ZM287.635 185.704C284.115 185.704 281.402 184.721 279.495 182.756C277.618 180.791 276.679 177.96 276.679 174.264V146.984H271.311C270.842 146.984 270.446 146.852 270.123 146.588C269.8 146.295 269.639 145.855 269.639 145.268V142.144L276.943 141.22L278.747 127.448C278.835 127.008 279.026 126.656 279.319 126.392C279.642 126.099 280.052 125.952 280.551 125.952H284.511V141.308H297.403V146.984H284.511V173.736C284.511 175.613 284.966 177.007 285.875 177.916C286.784 178.825 287.958 179.28 289.395 179.28C290.216 179.28 290.92 179.177 291.507 178.972C292.123 178.737 292.651 178.488 293.091 178.224C293.531 177.96 293.898 177.725 294.191 177.52C294.514 177.285 294.792 177.168 295.027 177.168C295.438 177.168 295.804 177.417 296.127 177.916L298.415 181.656C297.066 182.917 295.438 183.915 293.531 184.648C291.624 185.352 289.659 185.704 287.635 185.704ZM327.006 164.936C323.398 165.053 320.318 165.347 317.766 165.816C315.243 166.256 313.175 166.843 311.562 167.576C309.978 168.309 308.819 169.175 308.086 170.172C307.382 171.169 307.03 172.284 307.03 173.516C307.03 174.689 307.221 175.701 307.602 176.552C307.983 177.403 308.497 178.107 309.142 178.664C309.817 179.192 310.594 179.588 311.474 179.852C312.383 180.087 313.351 180.204 314.378 180.204C315.757 180.204 317.018 180.072 318.162 179.808C319.306 179.515 320.377 179.104 321.374 178.576C322.401 178.048 323.369 177.417 324.278 176.684C325.217 175.951 326.126 175.115 327.006 174.176V164.936ZM301.706 146.72C304.17 144.344 306.825 142.569 309.67 141.396C312.515 140.223 315.669 139.636 319.13 139.636C321.623 139.636 323.838 140.047 325.774 140.868C327.71 141.689 329.338 142.833 330.658 144.3C331.978 145.767 332.975 147.541 333.65 149.624C334.325 151.707 334.662 153.995 334.662 156.488V185H331.186C330.423 185 329.837 184.883 329.426 184.648C329.015 184.384 328.693 183.885 328.458 183.152L327.578 178.928C326.405 180.013 325.261 180.981 324.146 181.832C323.031 182.653 321.858 183.357 320.626 183.944C319.394 184.501 318.074 184.927 316.666 185.22C315.287 185.543 313.747 185.704 312.046 185.704C310.315 185.704 308.687 185.469 307.162 185C305.637 184.501 304.302 183.768 303.158 182.8C302.043 181.832 301.149 180.615 300.474 179.148C299.829 177.652 299.506 175.892 299.506 173.868C299.506 172.108 299.99 170.421 300.958 168.808C301.926 167.165 303.495 165.713 305.666 164.452C307.837 163.191 310.667 162.164 314.158 161.372C317.649 160.551 321.931 160.081 327.006 159.964V156.488C327.006 153.027 326.258 150.416 324.762 148.656C323.266 146.867 321.081 145.972 318.206 145.972C316.27 145.972 314.642 146.221 313.322 146.72C312.031 147.189 310.902 147.732 309.934 148.348C308.995 148.935 308.174 149.477 307.47 149.976C306.795 150.445 306.121 150.68 305.446 150.68C304.918 150.68 304.463 150.548 304.082 150.284C303.701 149.991 303.378 149.639 303.114 149.228L301.706 146.72Z" fill="white"/>
<rect y="213.578" width="420" height="26.422" fill="#D42B21"/>
</g>
<defs>
<clipPath id="clip0">
<rect width="420" height="240" fill="white"/>
</clipPath>
</defs>
</svg>
